<svg width="31" height="32" viewBox="0 0 31 32" fill="none" xmlns="http://www.w3.org/2000/svg">
<path d="M0.790985 6.794C0.379543 6.794 0.0429077 6.45736 0.0354271 6.04592V1.34052C0.0354271 0.921595 0.372063 0.584961 0.790985 0.584961H5.49639C5.90783 0.584961 6.24446 0.921595 6.24446 1.34052V2.97881H24.3479V1.34052C24.3479 0.929076 24.6845 0.592442 25.096 0.584961H29.8014C30.2128 0.584961 30.5495 0.921595 30.5569 1.34052V6.04592C30.5569 6.45736 30.2203 6.794 29.8014 6.794H28.1631V24.8974H29.8014C30.2128 24.8974 30.5495 25.2341 30.5569 25.6455V30.3509C30.5569 30.7624 30.2203 31.099 29.8014 31.1065H25.096C24.6845 31.1065 24.3479 30.7698 24.3479 30.3509V28.7126H6.24446V30.3509C6.24446 30.7624 5.90783 31.099 5.49639 31.1065H0.790985C0.379543 31.1065 0.0429077 30.7698 0.0354271 30.3509V25.6455C0.0354271 25.2341 0.372063 24.8974 0.790985 24.8974H2.42927V6.794H0.790985ZM29.0608 5.29784V2.08111H25.8441V5.29784H29.0608ZM25.8441 29.6103H29.0608V26.3936H25.8441V29.6103ZM6.24446 25.6455V27.2165H24.3479V25.6455C24.3479 25.2341 24.6845 24.8974 25.096 24.8974H26.6669V6.794H25.096C24.6845 6.794 24.3479 6.45736 24.3479 6.04592V4.47496H6.24446V6.04592C6.24446 6.45736 5.90783 6.794 5.49639 6.794H3.92542V24.8974H5.49639C5.90783 24.8974 6.24446 25.2341 6.24446 25.6455ZM1.53158 26.3936V29.6103H4.74831V26.3936H1.53158ZM4.74831 5.29784V2.08111H1.53158V5.29784H4.74831Z" fill="white"/>
</svg>
