<svg width="128" height="128" viewBox="0 0 128 128" fill="none" xmlns="http://www.w3.org/2000/svg">
<path d="M42.704 12.72C35.0848 14.8199 27.5172 17.1032 20.008 19.568C19.3224 19.7901 18.7128 20.2003 18.2489 20.752C17.785 21.3036 17.4853 21.9744 17.384 22.688C12.952 55.944 23.192 80.208 35.408 96.192C40.5802 103.027 46.7473 109.049 53.704 114.056C56.472 116.008 58.92 117.416 60.848 118.32C61.808 118.776 62.592 119.08 63.192 119.264C63.4545 119.356 63.725 119.423 64 119.464C64.2718 119.42 64.5394 119.353 64.8 119.264C65.408 119.08 66.192 118.776 67.152 118.32C69.072 117.416 71.528 116 74.296 114.056C81.2527 109.049 87.4198 103.027 92.592 96.192C104.808 80.216 115.048 55.944 110.616 22.688C110.516 21.9741 110.216 21.3028 109.752 20.751C109.288 20.1993 108.678 19.7893 107.992 19.568C102.784 17.864 93.992 15.088 85.296 12.728C76.416 10.32 68.248 8.536 64 8.536C59.76 8.536 51.584 10.32 42.704 12.728V12.72ZM40.576 4.48C49.256 2.12 58.48 0 64 0C69.52 0 78.744 2.12 87.424 4.48C96.304 6.88 105.256 9.72 110.52 11.44C112.721 12.1668 114.672 13.4997 116.15 15.2856C117.627 17.0715 118.571 19.2379 118.872 21.536C123.64 57.352 112.576 83.896 99.152 101.456C93.4596 108.968 86.672 115.583 79.016 121.08C76.3688 122.982 73.5639 124.655 70.632 126.08C68.392 127.136 65.984 128 64 128C62.016 128 59.616 127.136 57.368 126.08C54.4362 124.655 51.6313 122.982 48.984 121.08C41.3283 115.583 34.5407 108.968 28.848 101.456C15.424 83.896 4.36004 57.352 9.12804 21.536C9.42954 19.2379 10.3732 17.0715 11.8506 15.2856C13.328 13.4997 15.2792 12.1668 17.48 11.44C25.1216 8.93447 32.8225 6.6138 40.576 4.48Z" fill="#43B97F"/>
<path d="M86.8322 41.168C87.2047 41.5396 87.5002 41.981 87.7019 42.4669C87.9035 42.9529 88.0073 43.4739 88.0073 44C88.0073 44.5261 87.9035 45.0471 87.7019 45.5331C87.5002 46.019 87.2047 46.4604 86.8322 46.832L62.8322 70.832C62.4606 71.2045 62.0192 71.5001 61.5332 71.7017C61.0473 71.9034 60.5263 72.0072 60.0002 72.0072C59.474 72.0072 58.9531 71.9034 58.4671 71.7017C57.9811 71.5001 57.5397 71.2045 57.1682 70.832L45.1682 58.832C44.7963 58.4601 44.5013 58.0186 44.3 57.5327C44.0987 57.0468 43.9951 56.526 43.9951 56C43.9951 55.4741 44.0987 54.9533 44.3 54.4673C44.5013 53.9814 44.7963 53.5399 45.1682 53.168C45.5401 52.7961 45.9816 52.5011 46.4675 52.2998C46.9534 52.0985 47.4742 51.995 48.0002 51.995C48.5261 51.995 49.0469 52.0985 49.5328 52.2998C50.0188 52.5011 50.4603 52.7961 50.8322 53.168L60.0002 62.344L81.1682 41.168C81.5397 40.7955 81.9811 40.5 82.4671 40.2983C82.9531 40.0967 83.474 39.9929 84.0002 39.9929C84.5263 39.9929 85.0473 40.0967 85.5332 40.2983C86.0192 40.5 86.4606 40.7955 86.8322 41.168Z" fill="#43B97F"/>
</svg>
