<svg width="48" height="48" viewBox="0 0 48 48" fill="none" xmlns="http://www.w3.org/2000/svg">
<path d="M13.5 4C13.1022 4 12.7206 4.15804 12.4393 4.43934C12.158 4.72064 12 5.10218 12 5.5V19.5C12.0004 22.2901 13.0149 24.985 14.8546 27.0826C16.6943 29.1802 19.2338 30.5377 22 30.902V41.016L17.506 41C17.1082 40.9984 16.726 41.1549 16.4436 41.4351C16.1612 41.7153 16.0016 42.0962 16 42.494C15.9984 42.8918 16.1549 43.274 16.4351 43.5564C16.7153 43.8388 17.0962 43.9984 17.494 44L23.494 44.022H23.504L30.504 44C30.9018 43.9989 31.2829 43.8399 31.5635 43.5578C31.844 43.2758 32.0011 42.8938 32 42.496C31.9989 42.0982 31.8399 41.7171 31.5578 41.4365C31.2758 41.156 30.8938 40.9989 30.496 41L25 41.018V30.912C28.0336 30.5449 30.8277 29.0795 32.8544 26.7926C34.8811 24.5057 36.0001 21.5557 36 18.5V5.5C36 5.10218 35.842 4.72064 35.5607 4.43934C35.2794 4.15804 34.8978 4 34.5 4H13.5ZM15 14V7H33V14H15ZM31.366 19.414C31.0633 21.0068 30.2495 22.4574 29.048 23.546C28.0595 24.4464 26.8484 25.0665 25.54 25.342C25.2804 25.3964 25.0097 25.3454 24.7877 25.2002C24.5657 25.0551 24.4104 24.8276 24.356 24.568C24.3016 24.3084 24.3526 24.0377 24.4978 23.8157C24.6429 23.5937 24.8704 23.4384 25.13 23.384C26.0897 23.1837 26.978 22.7292 27.702 22.068C28.5797 21.267 29.1758 20.2045 29.402 19.038C29.456 18.7816 29.6084 18.5565 29.8266 18.4114C30.0448 18.2662 30.3112 18.2125 30.5686 18.2617C30.826 18.311 31.0537 18.4594 31.2029 18.6748C31.352 18.8903 31.4106 19.1558 31.366 19.414Z" fill="#3D3E48"/>
</svg>
