<svg width="48" height="48" viewBox="0 0 48 48" fill="none" xmlns="http://www.w3.org/2000/svg">
<path d="M24.5595 24.009C23.3205 24.009 22.923 24.7245 23.3085 25.7805C23.4435 26.2485 23.82 27.429 24.1935 28.4355C24.6615 29.6955 25.338 30.018 26.4555 30.018H29.0145C30.2535 30.018 30.429 29.148 30.165 28.4355L29.916 27.7605C29.658 27.0645 29.3355 26.19 29.0685 25.491C28.7025 24.537 27.9915 24.009 26.8755 24.009H24.5595Z" fill="#3D3E48"/>
<path d="M39.6975 7.25399C39.7125 7.45949 39.8475 7.82699 40.1115 7.91399C40.6963 8.05413 41.2471 8.30977 41.7316 8.66589C42.2161 9.02201 42.6245 9.47142 42.9328 9.98768C43.2411 10.5039 43.4431 11.0766 43.5268 11.6721C43.6106 12.2675 43.5744 12.8737 43.4205 13.455C43.4196 13.4837 43.4124 13.5119 43.3995 13.5375L43.392 13.5585C43.3805 13.5972 43.3685 13.6357 43.356 13.674C43.281 13.9335 43.221 14.289 43.476 14.5545C44.1829 15.147 44.6911 15.9421 44.9319 16.8325C45.1726 17.723 45.1344 18.6658 44.8224 19.5339C44.5104 20.4019 43.9396 21.1533 43.187 21.6867C42.4345 22.22 41.5364 22.5097 40.614 22.5165H39.006V25.5H42C43.65 25.5 45 26.835 45 28.497V40.488C44.996 41.6839 44.519 42.8297 43.673 43.6751C42.8271 44.5205 41.681 44.9968 40.485 45H7.515C6.31831 44.9992 5.17082 44.5237 4.32435 43.6778C3.47788 42.8319 3.00159 41.6847 3 40.488V28.497C3 26.85 4.335 25.5 6 25.5H11.22C12.1905 23.0445 12.96 21.102 13.071 20.835L13.113 20.7315C13.2345 20.433 13.3905 20.0535 13.6215 19.764C13.7822 19.5588 13.9893 19.3948 14.2259 19.2855C14.4625 19.1762 14.7216 19.1248 14.982 19.1355H25.6425C25.4348 18.326 25.4557 17.4747 25.7027 16.6763C25.9498 15.878 26.4134 15.1637 27.042 14.613C27.192 14.43 27.252 14.1735 27.1605 13.9575C27.1537 13.9421 27.1486 13.926 27.1455 13.9095C26.912 13.2987 26.8141 12.6445 26.8587 11.9921C26.9032 11.3398 27.0891 10.7049 27.4035 10.1315C27.7178 9.55817 28.1531 9.06005 28.6792 8.67169C29.2053 8.28334 29.8095 8.01405 30.45 7.88249C30.618 7.80149 30.6645 7.63349 30.69 7.45349C30.7042 6.28485 31.1717 5.16739 31.9939 4.33685C32.8162 3.5063 33.9289 3.0276 35.0974 3.00172C36.2658 2.97584 37.3986 3.40481 38.2568 4.19813C39.1151 4.99146 39.6316 6.08712 39.6975 7.25399ZM14.7045 24.405C12.888 29.4225 9.6795 38.0535 9.5475 38.406C9.411 38.7675 9.2175 38.9715 9.1365 39.0285H14.775V24.1935L14.772 24.183L14.706 24.405H14.7045ZM19.5555 35.979C20.3895 37.9995 20.8245 38.979 22.401 39.03H38.697C39.792 39.03 40.269 38.139 39.744 36.801L39.2565 35.577L39.2505 35.5605V35.559C38.6844 34.1434 38.1194 32.7274 37.5555 31.311L37.434 30.999L37.305 30.675L36.711 29.175L36.4395 28.491H36.4485L34.101 22.515H34.0935L33.999 22.272L33.5925 21.219L33.4695 20.907C33.4617 20.8873 33.4547 20.8673 33.4485 20.847L33.42 20.772L33.3675 20.634H20.415L20.4975 20.646H15.555C14.772 20.646 14.475 21.39 14.295 21.8385L14.2695 21.906C14.0925 22.344 14.151 22.5285 14.2695 22.806C14.3625 23.028 14.8905 24.378 15.144 25.026H15.1365C16.5405 28.524 18.927 34.461 19.554 35.979H19.5555ZM37.506 27.0825V22.515H35.712L37.506 27.081V27.0825Z" fill="#3D3E48"/>
<path d="M12.5641 8.28002C13.0345 7.79789 13.5985 7.41695 14.2214 7.16056C14.8443 6.90417 15.513 6.77774 16.1866 6.78902C18.6316 6.78902 21.5086 8.68802 21.5086 11.8485C21.5086 14.817 19.4806 17.31 16.4986 17.31H10.4476C9.05706 17.31 7.90356 16.95 7.08756 16.23C6.26106 15.4995 5.87256 14.4765 5.87256 13.3485C5.87256 11.1285 7.51806 9.39752 9.53556 9.29102C9.87792 8.83442 10.3513 8.49304 10.8927 8.31241C11.4341 8.13178 12.0176 8.12048 12.5656 8.28002H12.5641ZM16.1866 8.28902C14.4151 8.28902 13.4866 9.37802 13.0561 10.062C12.7966 10.4745 12.4861 10.8705 12.0301 11.043C11.5621 11.223 11.1271 11.1 10.8151 10.983C10.7318 10.9619 10.6492 10.9378 10.5676 10.911C10.2994 10.8191 10.0168 10.7769 9.73356 10.7865C8.50506 10.7865 7.37256 11.8335 7.37256 13.3485C7.37256 14.1225 7.62756 14.706 8.08056 15.1065C8.54406 15.5145 9.30156 15.8115 10.4476 15.8115H16.5001C18.4936 15.8115 20.0101 14.1585 20.0101 11.8485C20.0101 9.72902 18.0346 8.28902 16.1881 8.28902H16.1866Z" fill="#3D3E48"/>
</svg>
