<svg width="48" height="48" viewBox="0 0 48 48" fill="none" xmlns="http://www.w3.org/2000/svg">
<path d="M34 40C34 41.0609 33.5786 42.0783 32.8284 42.8284C32.0783 43.5786 31.0609 44 30 44C28.9391 44 27.9217 43.5786 27.1716 42.8284C26.4214 42.0783 26 41.0609 26 40C26 38.9391 26.4214 37.9217 27.1716 37.1716C27.9217 36.4214 28.9391 36 30 36C31.0609 36 32.0783 36.4214 32.8284 37.1716C33.5786 37.9217 34 38.9391 34 40ZM14 40C14 41.0609 13.5786 42.0783 12.8284 42.8284C12.0783 43.5786 11.0609 44 10 44C8.93913 44 7.92172 43.5786 7.17157 42.8284C6.42143 42.0783 6 41.0609 6 40C6 38.9391 6.42143 37.9217 7.17157 37.1716C7.92172 36.4214 8.93913 36 10 36C11.0609 36 12.0783 36.4214 12.8284 37.1716C13.5786 37.9217 14 38.9391 14 40ZM35.22 6C33.9 6 32.88 6.4 32 7C30.64 7.82 29.76 9.18 28.94 10.14L11.42 30.7C10.32 32 11.24 34 12.94 34H28C29.0609 34 30.0783 33.5786 30.8284 32.8284C31.5786 32.0783 32 31.0609 32 30V12.76C33.16 11.4 33.86 10 35.22 10C36.76 10 38 11.32 38 13V14H42V13C42 9.12 39 6 35.22 6ZM17.72 6.18C14.08 6.32 10.46 7.52 7.36 9.8L16.88 19.32L24.64 10.2C25.18 9.56 25.82 8.76 26.6 8C24.3109 6.91686 21.8297 6.29827 19.3 6.18C18.78 6.16 18.24 6.16 17.72 6.18Z" fill="#3D3E48"/>
</svg>
