<svg width="32" height="26" viewBox="0 0 32 26" fill="none" xmlns="http://www.w3.org/2000/svg">
<path d="M28.5303 25.2278C27.9058 25.2406 27.2924 25.0619 26.7724 24.7158C26.3853 24.4629 25.933 24.3282 25.4707 24.3282C25.0083 24.3282 24.556 24.4629 24.169 24.7158C23.6437 25.0502 23.0339 25.2278 22.4113 25.2278C21.7886 25.2278 21.1788 25.0502 20.6535 24.7158C20.2665 24.4626 19.8141 24.3278 19.3516 24.3278C18.8891 24.3278 18.4367 24.4626 18.0497 24.7158C17.5244 25.0502 16.9146 25.2278 16.292 25.2278C15.6693 25.2278 15.0595 25.0502 14.5342 24.7158C14.1475 24.4628 13.6953 24.3281 13.2332 24.3281C12.771 24.3281 12.3189 24.4628 11.9322 24.7158C11.4559 25.0323 10.9002 25.2082 10.3286 25.2233L10.2971 24.3234C10.7193 24.3134 11.1293 24.1798 11.4764 23.9392C12.0015 23.6048 12.6111 23.4272 13.2336 23.4272C13.8562 23.4272 14.4658 23.6048 14.9909 23.9392C15.3779 24.1922 15.8303 24.3269 16.2926 24.3269C16.755 24.3269 17.2073 24.1922 17.5943 23.9392C18.1197 23.6045 18.7296 23.4268 19.3525 23.4268C19.9754 23.4268 20.5853 23.6045 21.1107 23.9392C21.4977 24.1922 21.95 24.3269 22.4124 24.3269C22.8747 24.3269 23.3271 24.1922 23.7141 23.9392C24.2394 23.6049 24.8491 23.4273 25.4718 23.4273C26.0945 23.4273 26.7042 23.6049 27.2295 23.9392C27.6175 24.1928 28.0709 24.3278 28.5344 24.3278C28.9979 24.3278 29.4513 24.1928 29.8392 23.9392C30.3586 23.5941 30.971 23.4157 31.5945 23.428V24.3279C31.1303 24.3152 30.6741 24.4509 30.2923 24.7153C29.7711 25.062 29.1562 25.2408 28.5303 25.2278Z" fill="white"/>
<path d="M4.05757 25.2278C3.43318 25.2407 2.81983 25.062 2.30008 24.7158C1.91838 24.4511 1.4622 24.3153 0.997925 24.3279V23.428C1.62246 23.415 2.23598 23.5937 2.75587 23.94C3.13736 24.2047 3.59343 24.3406 4.05757 24.3279C4.52193 24.3407 4.9782 24.2046 5.35973 23.9396C5.87851 23.5935 6.49102 23.4149 7.11452 23.428C7.72292 23.4143 8.32125 23.5848 8.83108 23.9171L8.37708 24.6937C8.00468 24.4431 7.56323 24.3152 7.11452 24.3279C6.65209 24.3154 6.19776 24.451 5.81777 24.7149C5.29743 25.0621 4.683 25.2411 4.05757 25.2278Z" fill="white"/>
<path d="M28.5316 22.0778C27.9067 22.0906 27.2928 21.9119 26.7723 21.5658C26.385 21.3126 25.9323 21.1778 25.4695 21.1778C25.0068 21.1778 24.5541 21.3126 24.1667 21.5658C23.6415 21.9001 23.0318 22.0777 22.4092 22.0777C21.7866 22.0777 21.1769 21.9001 20.6517 21.5658C20.2648 21.3128 19.8127 21.1781 19.3504 21.1781C18.8882 21.1781 18.436 21.3128 18.0492 21.5658C17.524 21.9002 16.9143 22.0779 16.2917 22.0779C15.6691 22.0779 15.0594 21.9002 14.5342 21.5658C14.1473 21.3128 13.6951 21.1781 13.2329 21.1781C12.7707 21.1781 12.3185 21.3128 11.9317 21.5658C11.412 21.9121 10.7986 22.0908 10.1742 22.0778C9.54978 22.0908 8.93641 21.9121 8.41668 21.5658C8.03533 21.3012 7.57942 21.1653 7.11543 21.1779C6.65158 21.1653 6.19583 21.3012 5.81463 21.5658C5.29572 21.9117 4.68333 22.0904 4.05983 22.0778C3.43529 22.0908 2.82177 21.9121 2.30188 21.5658C1.91977 21.3006 1.46283 21.1647 0.997925 21.1779V20.278C1.62232 20.2651 2.23567 20.4438 2.75542 20.7901C3.13712 21.0547 3.5933 21.1906 4.05758 21.1779C4.52142 21.1905 4.97717 21.0546 5.35838 20.7901C5.87728 20.4442 6.48968 20.2655 7.11318 20.278C7.73804 20.2648 8.35193 20.4435 8.87203 20.7901C9.25351 21.0548 9.70958 21.1907 10.1737 21.1779C10.6379 21.1907 11.0939 21.0548 11.4754 20.7901C12.0006 20.4556 12.6103 20.2779 13.2329 20.2779C13.8556 20.2779 14.4653 20.4556 14.9904 20.7901C15.3773 21.0431 15.8296 21.1778 16.2919 21.1778C16.7542 21.1778 17.2065 21.0431 17.5934 20.7901C18.1185 20.4556 18.7283 20.2779 19.3509 20.2779C19.9735 20.2779 20.5832 20.4556 21.1084 20.7901C21.4953 21.0431 21.9476 21.1778 22.4099 21.1778C22.8722 21.1778 23.3244 21.0431 23.7113 20.7901C24.237 20.4557 24.8472 20.2781 25.4702 20.2781C26.0932 20.2781 26.7033 20.4557 27.229 20.7901C27.6166 21.043 28.0695 21.1777 28.5323 21.1777C28.9952 21.1777 29.448 21.043 29.8356 20.7901C30.3559 20.444 30.9697 20.2654 31.5944 20.278V21.1779C31.1293 21.1648 30.6721 21.3007 30.2896 21.5658C29.7695 21.9116 29.1561 22.0903 28.5316 22.0778Z" fill="white"/>
<path d="M28.5303 18.9285C27.9058 18.9412 27.2923 18.7626 26.7723 18.4164C26.3906 18.1518 25.9344 18.0159 25.4702 18.0286C25.1295 18.0169 24.7911 18.0895 24.4852 18.2401L24.0884 17.4302C24.5179 17.2196 24.9919 17.1157 25.4702 17.1273C26.0954 17.1146 26.7096 17.2938 27.2299 17.6407C27.6179 17.8943 28.0713 18.0294 28.5348 18.0294C28.9983 18.0294 29.4517 17.8943 29.8396 17.6407C30.3588 17.2954 30.971 17.1167 31.5944 17.1287V18.0286C31.1302 18.0159 30.6741 18.1516 30.2923 18.416C29.771 18.7626 29.1561 18.9415 28.5303 18.9285Z" fill="white"/>
<path d="M22.4065 18.9284C21.783 18.9415 21.1705 18.7629 20.6517 18.4168C20.2647 18.1637 19.8122 18.0288 19.3498 18.0288C18.8873 18.0288 18.4349 18.1637 18.0478 18.4168C17.5226 18.7512 16.9128 18.9288 16.2901 18.9288C15.6674 18.9288 15.0577 18.7512 14.5324 18.4168C14.1454 18.1638 13.693 18.0291 13.2307 18.0291C12.7683 18.0291 12.316 18.1638 11.929 18.4168C11.4093 18.7625 10.7964 18.941 10.1724 18.9284C9.54799 18.9413 8.93463 18.7626 8.41488 18.4164C8.03319 18.1517 7.577 18.0159 7.11273 18.0285C6.65029 18.016 6.19596 18.1516 5.81598 18.4155C5.29614 18.7623 4.68239 18.9414 4.05758 18.9284C3.43319 18.9413 2.81983 18.7626 2.30008 18.4164C1.91838 18.1517 1.4622 18.0159 0.997925 18.0285V17.1286C1.62246 17.1156 2.23598 17.2943 2.75587 17.6406C3.13736 17.9053 3.59343 18.0412 4.05758 18.0285C4.52193 18.0413 4.9782 17.9052 5.35973 17.6402C5.87851 17.2941 6.49102 17.1155 7.11453 17.1286C7.73891 17.1157 8.35226 17.2944 8.87203 17.6406C9.25351 17.9053 9.70958 18.0412 10.1737 18.0285C10.638 18.0411 11.0942 17.9053 11.4759 17.6406C12.0011 17.3062 12.6109 17.1286 13.2336 17.1286C13.8563 17.1286 14.4661 17.3062 14.9913 17.6406C15.3783 17.8936 15.8307 18.0284 16.293 18.0284C16.7554 18.0284 17.2077 17.8936 17.5947 17.6406C18.1201 17.306 18.73 17.1282 19.3529 17.1282C19.9758 17.1282 20.5857 17.306 21.1111 17.6406C21.5075 17.9073 21.9776 18.0428 22.4551 18.028C22.4898 18.0285 22.5245 18.0267 22.559 18.0226L22.6787 18.9144C22.5884 18.925 22.4974 18.9296 22.4065 18.9284Z" fill="white"/>
<path d="M28.5316 15.778C27.9067 15.7908 27.2928 15.6121 26.7723 15.266C26.385 15.0128 25.9323 14.878 25.4695 14.878C25.0068 14.878 24.5541 15.0128 24.1667 15.266C23.6415 15.6003 23.0318 15.7779 22.4092 15.7779C21.7866 15.7779 21.1769 15.6003 20.6517 15.266C20.2648 15.013 19.8127 14.8783 19.3504 14.8783C18.8882 14.8783 18.436 15.013 18.0492 15.266C17.524 15.6004 16.9143 15.7781 16.2917 15.7781C15.6691 15.7781 15.0594 15.6004 14.5342 15.266C14.1473 15.013 13.6951 14.8783 13.2329 14.8783C12.7707 14.8783 12.3185 15.013 11.9317 15.266C11.412 15.6123 10.7986 15.791 10.1742 15.778C9.54978 15.791 8.93641 15.6123 8.41668 15.266C8.03533 15.0014 7.57942 14.8655 7.11543 14.8781C6.65158 14.8655 6.19583 15.0014 5.81463 15.266C5.29572 15.6119 4.68333 15.7906 4.05983 15.778C3.43529 15.791 2.82177 15.6123 2.30188 15.266C1.91977 15.0008 1.46283 14.8649 0.997925 14.8781V13.9782C1.62232 13.9653 2.23567 14.144 2.75542 14.4903C3.13712 14.7549 3.5933 14.8908 4.05758 14.8781C4.52142 14.8907 4.97717 14.7548 5.35838 14.4903C5.87728 14.1444 6.48968 13.9657 7.11318 13.9782C7.73804 13.965 8.35193 14.1437 8.87203 14.4903C9.25351 14.755 9.70958 14.8909 10.1737 14.8781C10.6379 14.8909 11.0939 14.755 11.4754 14.4903C12.0006 14.1558 12.6103 13.9781 13.2329 13.9781C13.8556 13.9781 14.4653 14.1558 14.9904 14.4903C15.3773 14.7433 15.8296 14.878 16.2919 14.878C16.7542 14.878 17.2065 14.7433 17.5934 14.4903C18.1185 14.1558 18.7283 13.9781 19.3509 13.9781C19.9735 13.9781 20.5832 14.1558 21.1084 14.4903C21.4953 14.7433 21.9476 14.878 22.4099 14.878C22.8722 14.878 23.3244 14.7433 23.7113 14.4903C24.237 14.1559 24.8472 13.9783 25.4702 13.9783C26.0932 13.9783 26.7033 14.1559 27.229 14.4903C27.6166 14.7432 28.0695 14.8779 28.5323 14.8779C28.9952 14.8779 29.448 14.7432 29.8356 14.4903C30.3559 14.1442 30.9697 13.9656 31.5944 13.9782V14.8781C31.1293 14.865 30.6721 15.0009 30.2896 15.266C29.7695 15.6118 29.1561 15.7905 28.5316 15.778Z" fill="white"/>
<path d="M22.1198 15.3967L21.2708 15.0988C21.4894 14.4706 21.5788 13.8046 21.5334 13.1409C21.488 12.4772 21.3088 11.8296 21.0066 11.2369L17.9159 5.18467C17.8854 5.1249 17.8687 5.05907 17.8669 4.99198C17.8651 4.9249 17.8784 4.85827 17.9057 4.79697C17.933 4.73566 17.9736 4.68125 18.0247 4.6377C18.0758 4.59416 18.1359 4.56258 18.2008 4.54529L24.3601 2.90298C24.5608 2.85049 24.7327 2.72086 24.8383 2.5423C24.944 2.36373 24.9748 2.15068 24.9241 1.94949C24.8735 1.7483 24.7454 1.57525 24.5679 1.468C24.3903 1.36074 24.1775 1.32795 23.9759 1.37676L16.5211 3.15855C16.3617 3.19621 16.2132 3.27005 16.0869 3.37435C15.9607 3.47865 15.8602 3.61061 15.7931 3.76001C15.7261 3.90941 15.6943 4.07224 15.7003 4.23588C15.7063 4.39952 15.7499 4.55959 15.8277 4.70368L18.0415 8.81621C18.0976 8.92073 18.1102 9.0432 18.0765 9.15697C18.0428 9.27073 17.9655 9.36657 17.8615 9.42364L15.0043 10.9985L14.5701 10.2101L17.0367 8.8504L15.0363 5.13023C14.8932 4.86465 14.8131 4.56972 14.8021 4.26824C14.7912 3.96676 14.8498 3.66681 14.9733 3.39158C15.0968 3.11635 15.282 2.87322 15.5145 2.68098C15.747 2.48875 16.0206 2.35256 16.3141 2.28295L23.7653 0.501606C24.1991 0.391998 24.6586 0.459197 25.0428 0.68842C25.4271 0.917643 25.7045 1.29011 25.8141 1.72389C25.9237 2.15767 25.8565 2.61722 25.6273 3.00146C25.3981 3.38569 25.0256 3.66312 24.5918 3.77273L18.9702 5.27106L21.8085 10.827C22.1659 11.5283 22.3777 12.2947 22.4312 13.08C22.4847 13.8654 22.3788 14.6534 22.1198 15.3967Z" fill="white"/>
<path d="M12.9975 11.0842L7.5296 14.0972L7.96368 14.8849L13.4316 11.872L12.9975 11.0842Z" fill="white"/>
<path d="M26.195 12.404C25.5276 12.404 24.8752 12.2061 24.3202 11.8353C23.7653 11.4645 23.3327 10.9374 23.0773 10.3208C22.8219 9.70418 22.7551 9.02566 22.8853 8.37105C23.0155 7.71643 23.3369 7.11514 23.8088 6.64319C24.2808 6.17124 24.8821 5.84984 25.5367 5.71963C26.1913 5.58942 26.8698 5.65625 27.4865 5.91166C28.1031 6.16708 28.6301 6.59961 29.0009 7.15456C29.3717 7.70952 29.5697 8.36196 29.5697 9.0294C29.5687 9.92411 29.2129 10.7819 28.5802 11.4146C27.9476 12.0472 27.0898 12.4031 26.195 12.404ZM26.195 6.55468C25.7056 6.55468 25.2271 6.69982 24.8202 6.97175C24.4132 7.24367 24.096 7.63017 23.9087 8.08237C23.7214 8.53456 23.6724 9.03215 23.7679 9.51219C23.8634 9.99224 24.0991 10.4332 24.4452 10.7793C24.7913 11.1254 25.2322 11.3611 25.7123 11.4566C26.1923 11.5521 26.6899 11.503 27.1421 11.3157C27.5943 11.1284 27.9808 10.8112 28.2527 10.4043C28.5246 9.99731 28.6698 9.51885 28.6698 9.0294C28.6689 8.37332 28.4079 7.74435 27.944 7.28043C27.4801 6.81651 26.8511 6.55552 26.195 6.55468Z" fill="white"/>
</svg>
