<svg width="32" height="28" viewBox="0 0 32 28" fill="none" xmlns="http://www.w3.org/2000/svg">
<path d="M5.89113 15.5586C5.47955 15.5586 5.07721 15.6806 4.73499 15.9093C4.39276 16.138 4.12604 16.463 3.96853 16.8432C3.81102 17.2235 3.76981 17.6419 3.85011 18.0456C3.9304 18.4493 4.1286 18.8201 4.41964 19.1111C4.71067 19.4021 5.08147 19.6003 5.48515 19.6806C5.88883 19.7609 6.30725 19.7197 6.6875 19.5622C7.06776 19.4047 7.39277 19.138 7.62143 18.7958C7.8501 18.4535 7.97215 18.0512 7.97215 17.6396C7.97215 17.0877 7.7529 16.5584 7.36263 16.1681C6.97237 15.7778 6.44305 15.5586 5.89113 15.5586ZM5.89113 18.6801C5.68534 18.6801 5.48417 18.6191 5.31306 18.5048C5.14195 18.3904 5.00858 18.2279 4.92983 18.0378C4.85108 17.8477 4.83047 17.6385 4.87062 17.4366C4.91077 17.2348 5.00987 17.0494 5.15538 16.9039C5.3009 16.7583 5.4863 16.6592 5.68814 16.6191C5.88998 16.5789 6.09919 16.5996 6.28932 16.6783C6.47945 16.7571 6.64195 16.8904 6.75628 17.0615C6.87062 17.2326 6.93164 17.4338 6.93164 17.6396C6.93164 17.9156 6.82202 18.1802 6.62688 18.3754C6.43175 18.5705 6.16709 18.6801 5.89113 18.6801Z" fill="white"/>
<path d="M26.7012 15.5586C26.2897 15.5586 25.8873 15.6806 25.5451 15.9093C25.2029 16.138 24.9362 16.463 24.7786 16.8432C24.6211 17.2235 24.5799 17.6419 24.6602 18.0456C24.7405 18.4493 24.9387 18.8201 25.2298 19.1111C25.5208 19.4021 25.8916 19.6003 26.2953 19.6806C26.6989 19.7609 27.1174 19.7197 27.4976 19.5622C27.8779 19.4047 28.2029 19.138 28.4315 18.7958C28.6602 18.4535 28.7823 18.0512 28.7823 17.6396C28.7823 17.0877 28.563 16.5584 28.1727 16.1681C27.7825 15.7778 27.2532 15.5586 26.7012 15.5586ZM26.7012 18.6801C26.4955 18.6801 26.2943 18.6191 26.1232 18.5048C25.9521 18.3904 25.8187 18.2279 25.7399 18.0378C25.6612 17.8477 25.6406 17.6385 25.6807 17.4366C25.7209 17.2348 25.82 17.0494 25.9655 16.9039C26.111 16.7583 26.2964 16.6592 26.4983 16.6191C26.7001 16.5789 26.9093 16.5996 27.0994 16.6783C27.2896 16.7571 27.4521 16.8904 27.5664 17.0615C27.6807 17.2326 27.7418 17.4338 27.7418 17.6396C27.7418 17.9156 27.6321 18.1802 27.437 18.3754C27.2419 18.5705 26.9772 18.6801 26.7012 18.6801Z" fill="white"/>
<path d="M11.614 18.1597H20.9785V19.2002H11.614V18.1597Z" fill="white"/>
<path d="M11.614 16.0786H20.9785V17.1191H11.614V16.0786Z" fill="white"/>
<path d="M14.7355 8.2749H17.857V9.31541H14.7355V8.2749Z" fill="white"/>
<path d="M31.9038 12.957V11.9165C31.9026 11.503 31.7377 11.1067 31.4453 10.8143C31.1529 10.5218 30.7566 10.357 30.343 10.3558H28.2828L27.2059 6.57873L26.8833 5.2937C26.7987 4.95629 26.6038 4.65683 26.3295 4.44287C26.0552 4.22891 25.7173 4.11271 25.3694 4.11273H20.9785V2.03172C20.9776 1.75601 20.8678 1.49183 20.6728 1.29688C20.4778 1.10192 20.2137 0.992034 19.938 0.991211H12.6544C12.3787 0.992034 12.1145 1.10192 11.9196 1.29688C11.7246 1.49183 11.6147 1.75601 11.6139 2.03172V4.11273H7.22298C6.87511 4.11271 6.53721 4.22891 6.26292 4.44287C5.98863 4.65683 5.79369 4.95629 5.70904 5.2937L5.39169 6.57353L4.30956 10.3558H2.24936C1.8358 10.357 1.43953 10.5218 1.1471 10.8143C0.854667 11.1067 0.689834 11.503 0.688599 11.9165V12.957C0.689441 13.2206 0.757189 13.4796 0.885492 13.7098C1.0138 13.9401 1.19845 14.1339 1.42216 14.2733C0.951847 14.7565 0.688663 15.4042 0.688599 16.0786V22.3216C0.689316 22.5399 0.736017 22.7555 0.825657 22.9545C0.915297 23.1535 1.04587 23.3314 1.20885 23.4766V25.4431C1.21009 25.8567 1.37492 26.2529 1.66735 26.5454C1.95978 26.8378 2.35605 27.0026 2.76961 27.0039H6.93164C7.3452 27.0026 7.74146 26.8378 8.0339 26.5454C8.32633 26.2529 8.49116 25.8567 8.4924 25.4431V23.8824H24.1V25.4431C24.1012 25.8567 24.2661 26.2529 24.5585 26.5454C24.8509 26.8378 25.2472 27.0026 25.6607 27.0039H29.8228C30.2363 27.0026 30.6326 26.8378 30.925 26.5454C31.2175 26.2529 31.3823 25.8567 31.3835 25.4431V23.4766C31.5465 23.3314 31.6771 23.1535 31.7667 22.9545C31.8564 22.7555 31.9031 22.5399 31.9038 22.3216V16.0786C31.9037 15.4042 31.6405 14.7565 31.1702 14.2733C31.3939 14.1339 31.5786 13.9401 31.7069 13.7098C31.8352 13.4796 31.9029 13.2206 31.9038 12.957ZM12.6544 2.03172H19.938V4.11273H12.6544V2.03172ZM6.71833 5.54863C6.74622 5.43584 6.81106 5.33562 6.90252 5.26397C6.99398 5.19231 7.10679 5.15333 7.22298 5.15324H25.3694C25.4856 5.15333 25.5984 5.19231 25.6899 5.26397C25.7813 5.33562 25.8462 5.43584 25.8741 5.54863L26.0353 6.19374H6.55705L6.71833 5.54863ZM6.28132 7.23425H26.3111L28.0903 13.4773H13.1279C13.0056 12.7502 12.6296 12.09 12.0667 11.6139C11.5038 11.1378 10.7904 10.8765 10.0532 10.8765C9.3159 10.8765 8.60249 11.1378 8.03959 11.6139C7.4767 12.09 7.10074 12.7502 6.97846 13.4773H4.50205L6.28132 7.23425ZM12.0613 13.4773H8.04498C8.15857 13.0309 8.41767 12.635 8.78134 12.3523C9.14501 12.0696 9.59252 11.9161 10.0532 11.9161C10.5138 11.9161 10.9613 12.0696 11.325 12.3523C11.6886 12.635 11.9477 13.0309 12.0613 13.4773ZM1.7291 11.9165C1.7291 11.7785 1.78392 11.6462 1.88148 11.5487C1.97905 11.4511 2.11138 11.3963 2.24936 11.3963H4.01302L3.41993 13.4773H2.24936C2.11138 13.4773 1.97905 13.4225 1.88148 13.3249C1.78392 13.2273 1.7291 13.095 1.7291 12.957V11.9165ZM7.45189 25.4431C7.45189 25.5811 7.39708 25.7134 7.29951 25.811C7.20194 25.9086 7.06962 25.9634 6.93164 25.9634H2.76961C2.63163 25.9634 2.4993 25.9086 2.40174 25.811C2.30417 25.7134 2.24936 25.5811 2.24936 25.4431V23.8824H7.45189V25.4431ZM30.343 25.4431C30.343 25.5811 30.2882 25.7134 30.1906 25.811C30.0931 25.9086 29.9608 25.9634 29.8228 25.9634H25.6607C25.5228 25.9634 25.3904 25.9086 25.2929 25.811C25.1953 25.7134 25.1405 25.5811 25.1405 25.4431V23.8824H30.343V25.4431ZM30.8633 22.3216C30.8633 22.4596 30.8085 22.5919 30.7109 22.6895C30.6133 22.787 30.481 22.8418 30.343 22.8418H2.24936C2.11138 22.8418 1.97905 22.787 1.88148 22.6895C1.78392 22.5919 1.7291 22.4596 1.7291 22.3216V21.8013H30.8633V22.3216ZM30.8633 20.7608H1.7291V16.0786C1.73034 15.665 1.89517 15.2687 2.18761 14.9763C2.48004 14.6839 2.87631 14.519 3.28986 14.5178H29.3025C29.7161 14.519 30.1123 14.6839 30.4048 14.9763C30.6972 15.2687 30.862 15.665 30.8633 16.0786V20.7608ZM30.8633 12.957C30.8633 13.095 30.8085 13.2273 30.7109 13.3249C30.6133 13.4225 30.481 13.4773 30.343 13.4773H29.1725L28.5794 11.3963H30.343C30.481 11.3963 30.6133 11.4511 30.7109 11.5487C30.8085 11.6462 30.8633 11.7785 30.8633 11.9165V12.957Z" fill="white"/>
</svg>
