<svg width="48" height="48" viewBox="0 0 48 48" fill="none" xmlns="http://www.w3.org/2000/svg">
<path d="M41.25 3C41.4489 3 41.6397 3.07902 41.7803 3.21967C41.921 3.36032 42 3.55109 42 3.75V33.0645L41.997 33.1845C41.9715 33.7576 41.9114 34.3287 41.817 34.8945C41.5914 36.279 41.1622 37.6225 40.5435 38.8815C39.801 40.3665 38.6505 41.9205 36.8835 43.0995C35.106 44.2845 32.8335 45 30 45C27.1695 45 24.8955 44.286 23.115 43.0995C21.348 41.9205 20.199 40.3665 19.455 38.8815C18.8366 37.622 18.408 36.2779 18.183 34.893C18.0886 34.3276 18.0285 33.7571 18.003 33.1845C18.0016 33.1445 18.0006 33.1045 18 33.0645V33H16.5255C16.1248 33.0016 15.7397 32.8449 15.454 32.564C15.1683 32.2831 15.0051 31.9006 15 31.5C15 30.6765 15.6885 30 16.5255 30H23.9745C24.8265 30 25.5 30.6765 25.5 31.5C25.5 32.3235 24.8115 33 23.9745 33H22.5V33.0345L22.5135 33.2595C22.5285 33.465 22.5585 33.7755 22.6215 34.1535C22.749 34.92 23.001 35.9085 23.481 36.8685C23.9565 37.821 24.636 38.7045 25.611 39.354C26.5725 39.996 27.9555 40.5 30 40.5C32.0445 40.5 33.4275 39.996 34.389 39.354C35.364 38.7045 36.0435 37.821 36.519 36.8685C36.999 35.9085 37.251 34.92 37.3785 34.1535C37.4401 33.7831 37.4802 33.4095 37.4985 33.0345L37.5 32.991V3.75C37.5 3.55109 37.579 3.36032 37.7197 3.21967C37.8603 3.07902 38.0511 3 38.25 3H41.25Z" fill="#3D3E48"/>
<path d="M16.5465 23.607C15.5624 24.3489 14.3634 24.7501 13.131 24.75C11.9977 24.7512 10.8754 24.5289 9.82805 24.096C8.78074 23.663 7.82906 23.0279 7.02745 22.2268C6.22583 21.4257 5.58999 20.4745 5.15631 19.4275C4.72263 18.3805 4.49961 17.2583 4.5 16.125C4.49961 14.9917 4.72263 13.8695 5.15631 12.8225C5.58999 11.7755 6.22583 10.8243 7.02745 10.0232C7.82906 9.22214 8.78074 8.58697 9.82805 8.15402C10.8754 7.72106 11.9977 7.49882 13.131 7.5H27.3405C29.6314 7.4992 31.8292 8.40654 33.4524 10.0232C35.0756 11.6399 35.9917 13.8341 36 16.125C36.0004 17.2583 35.7774 18.3805 35.3437 19.4275C34.91 20.4745 34.2742 21.4257 33.4726 22.2268C32.6709 23.0279 31.7193 23.663 30.672 24.096C29.6247 24.5289 28.5023 24.7512 27.369 24.75C26.1285 24.75 24.954 24.345 23.997 23.64C23.905 24.5615 23.4736 25.4159 22.7866 26.0369C22.0995 26.6579 21.2061 27.0012 20.28 27C18.33 27 16.7265 25.509 16.5465 23.607ZM33.5475 16.125C33.5459 14.4796 32.8914 12.902 31.7276 11.7388C30.5638 10.5756 28.9859 9.9218 27.3405 9.921H13.131C11.4853 9.9214 9.90706 10.575 8.74296 11.7383C7.57885 12.9015 6.92409 14.4793 6.9225 16.125C6.92409 17.7707 7.57885 19.3485 8.74296 20.5117C9.90706 21.675 11.4853 22.3286 13.131 22.329C14.4465 22.329 15.6135 21.5505 16.122 20.34L16.7505 18.861C17.0372 18.1736 17.5213 17.5865 18.1414 17.174C18.7616 16.7616 19.4902 16.5421 20.235 16.5435C20.9795 16.5437 21.7073 16.7638 22.3272 17.1761C22.9471 17.5883 23.4315 18.1745 23.7195 18.861L24.3495 20.34C24.595 20.9305 25.0103 21.4348 25.5428 21.7889C26.0753 22.1431 26.701 22.331 27.3405 22.329C28.9859 22.3282 30.5638 21.6744 31.7276 20.5112C32.8914 19.348 33.5459 17.7704 33.5475 16.125Z" fill="#3D3E48"/>
</svg>
