<svg width="44" height="44" viewBox="0 0 44 44" fill="none" xmlns="http://www.w3.org/2000/svg">
<path d="M12.8334 14.6667C11.9167 14.6667 10.0834 15.2167 10.0834 17.4167C10.0834 19.6167 11.9167 20.1667 12.8334 20.1667M3.66675 31.1667V36.6667C3.66675 37.6391 4.05306 38.5718 4.74069 39.2594C5.42832 39.947 6.36095 40.3333 7.33341 40.3333H27.5001M3.66675 31.1667V11C3.66675 10.0275 4.05306 9.09491 4.74069 8.40728C5.42832 7.71964 6.36095 7.33333 7.33341 7.33333H12.8334M3.66675 31.1667C6.23891 30.7377 10.3346 30.6295 14.5659 31.6122M27.5001 40.3333H33.0001C33.9725 40.3333 34.9052 39.947 35.5928 39.2594C36.2804 38.5718 36.6667 37.6391 36.6667 36.6667V25.6667M27.5001 40.3333C24.3761 35.2587 19.3839 32.7287 14.5659 31.6122M14.5659 31.6122C16.5734 29.2875 19.5709 27.1205 23.9086 25.6667M18.3334 18.3333V9.16667C18.3334 8.68044 18.5266 8.21412 18.8704 7.87031C19.2142 7.52649 19.6805 7.33333 20.1667 7.33333H22.0001L25.6667 3.66667H33.0001L36.6667 7.33333H38.5001C38.9863 7.33333 39.4526 7.52649 39.7964 7.87031C40.1403 8.21412 40.3334 8.68044 40.3334 9.16667V18.3333C40.3334 18.8196 40.1403 19.2859 39.7964 19.6297C39.4526 19.9735 38.9863 20.1667 38.5001 20.1667H20.1667C19.6805 20.1667 19.2142 19.9735 18.8704 19.6297C18.5266 19.2859 18.3334 18.8196 18.3334 18.3333Z" stroke="#3D3E48" stroke-width="2" stroke-linecap="round" stroke-linejoin="round"/>
<path d="M29.3333 14.6667C30.3459 14.6667 31.1667 13.8459 31.1667 12.8333C31.1667 11.8208 30.3459 11 29.3333 11C28.3208 11 27.5 11.8208 27.5 12.8333C27.5 13.8459 28.3208 14.6667 29.3333 14.6667Z" stroke="#3D3E48" stroke-width="2" stroke-linecap="round" stroke-linejoin="round"/>
</svg>
