<svg width="46" height="48" viewBox="0 0 46 48" fill="none" xmlns="http://www.w3.org/2000/svg">
<path d="M44.3571 20.9036C44.7929 20.9036 45.2107 20.76 45.5188 20.5044C45.8269 20.2488 46 19.9022 46 19.5407V12.7259C46 12.003 45.6538 11.3096 45.0376 10.7984C44.4214 10.2872 43.5857 10 42.7143 10H3.28571C2.41429 10 1.57855 10.2872 0.962363 10.7984C0.346172 11.3096 0 12.003 0 12.7259V19.5407C0 19.9022 0.173086 20.2488 0.481182 20.5044C0.789277 20.76 1.20714 20.9036 1.64286 20.9036C2.51428 20.9036 3.35002 21.1908 3.96621 21.702C4.5824 22.2132 4.92857 22.9066 4.92857 23.6295C4.92857 24.3525 4.5824 25.0458 3.96621 25.557C3.35002 26.0682 2.51428 26.3554 1.64286 26.3554C1.20714 26.3554 0.789277 26.499 0.481182 26.7546C0.173086 27.0102 0 27.3569 0 27.7184V34.5332C0 35.2561 0.346172 35.9495 0.962363 36.4607C1.57855 36.9719 2.41429 37.2591 3.28571 37.2591H42.7143C43.5857 37.2591 44.4214 36.9719 45.0376 36.4607C45.6538 35.9495 46 35.2561 46 34.5332V27.7184C46 27.3569 45.8269 27.0102 45.5188 26.7546C45.2107 26.499 44.7929 26.3554 44.3571 26.3554C43.4857 26.3554 42.65 26.0682 42.0338 25.557C41.4176 25.0458 41.0714 24.3525 41.0714 23.6295C41.0714 22.9066 41.4176 22.2132 42.0338 21.702C42.65 21.1908 43.4857 20.9036 44.3571 20.9036V20.9036ZM42.7143 28.9042V34.5332H31.2143V30.4443H27.9286V34.5332H3.28571V28.9042C4.69199 28.5992 5.93673 27.9161 6.82512 26.9617C7.71351 26.0073 8.19542 24.8354 8.19542 23.6295C8.19542 22.4237 7.71351 21.2518 6.82512 20.2974C5.93673 19.343 4.69199 18.6598 3.28571 18.3549V12.7259H27.9286V16.8148H31.2143V12.7259H42.7143V18.3549C41.308 18.6598 40.0633 19.343 39.1749 20.2974C38.2865 21.2518 37.8046 22.4237 37.8046 23.6295C37.8046 24.8354 38.2865 26.0073 39.1749 26.9617C40.0633 27.9161 41.308 28.5992 42.7143 28.9042V28.9042Z" fill="#32DF8F"/>
<path d="M29 19.0863H32V28.1727H29V19.0863Z" fill="#32DF8F"/>
</svg>
